# xmcd CD database file
#
# Track frame offsets:
#	183
#	26033
#	36200
#	44198
#	80935
#	89585
#	115413
#	142075
#	169953
#
# Disc length: 2526 seconds
#
# Revision: 1
# Processed by: cddbd v1.5.2PL0 Copyright (c) Steve Scherf et al.
# Submitted via: CDex 1.51
#
DISCID=8b09dc09
DTITLE=Vangelis - Albedo 0.39
DYEAR=1976
DGENRE=New Age
TTITLE0=Pulstar
TTITLE1=Freefall
TTITLE2=Mare Tranquillitatis
TTITLE3=Main Sequence
TTITLE4=Sword Of Orion
TTITLE5=Alpha
TTITLE6=Nucleogenesis (Part One)
TTITLE7=Nucleogenesis (Part Two)
TTITLE8=Albedo 0.39
EXTD=YEAR: 1976
EXTT0=
EXTT1=
EXTT2=
EXTT3=
EXTT4=
EXTT5=
EXTT6=
EXTT7=
EXTT8=
PLAYORDER=
